<?xml version="1.0" encoding="utf-8"?>
<!-- Generator: Adobe Illustrator 20.0.0, SVG Export Plug-In . SVG Version: 6.00 Build 0)  -->
<svg version="1.1" id="Layer_1" xmlns="http://www.w3.org/2000/svg" xmlns:xlink="http://www.w3.org/1999/xlink" x="0px" y="0px"
	 viewBox="0 0 640 283.5" style="enable-background:new 0 0 640 283.5;" xml:space="preserve">
<style type="text/css">
	.st0{fill:#FFFFFF;}
</style>
<g>
	<g>
		<path class="st0" d="M135.8,123c1.2,12.5,2.3,25,3.5,37.5c0.3,3.4,0.6,7-0.6,10.2c-2,5.2-9.4,7.3-12.8,2c-1.1-1.8-1.5-3.9-1.9-6
			c-0.7-4.5-0.8-9.7-2-14.1c-1.2-4.4-4.8-3.6-8.6-2.8c-4,0.8-3.1,5.9-3.5,8.9c-0.6,4.8,0.2,11.8-2.8,15.5c-2.7,3.3-7.1,1.5-7.7-2.4
			c-0.3-1.7-0.1-3.5,0.1-5.2c0.5-3.9,1.6-7.8,1.8-11.7c0.2-3.6-0.1-5.9-4.1-6.5c-1.7-0.2-6.5-1.3-5-4.2c0.2-0.5,0.7-0.8,1.1-1.1
			c3-2,7.4-1.5,9.8-4.6c1.7-2.3,1.6-6.1,1.9-8.8c1.1-9.1,4.8-18.7,8.5-27.1c0.9-2.1,2-4.2,4-5.3c1.2-0.6,2.6-0.8,3.9-0.9
			c7.3-0.3,12.2,3.9,12.8,11.1C134.8,112.6,135.3,117.8,135.8,123z M122,120.5c0-2.3-0.1-4.6-0.2-6.9c0-0.3,0.1-1.4-0.1-1.6
			c-0.8-0.5-4.5,7-4.9,7.8c-1.3,2.8-2.2,5.8-2.8,8.8c-0.6,3.1-1.7,6.2-0.9,9.3c0.5,1.9,2.5,2.1,4.1,2.4c1.2,0.2,2.5,0.1,3.4-0.7
			c0.5-0.4,0.8-1,1-1.7c0.3-1.3,0.2-2.7,0.3-4c0-1.5,0.1-3.1,0.1-4.6C122.1,126.4,122.1,123.5,122,120.5z"/>
		<path class="st0" d="M180.1,98.1c2.8-2.3,7.7-1.1,10.4,0.7c2.3,1.5,3.1,4,3,6.7c-0.2,3.6-1.1,7.2-1.7,10.8
			c-0.8,5.8-1.8,11.5-2.4,17.3c-1.1,10.7-1.5,21.6,0.6,32.3c0.2,0.9,0.4,1.8,1,2.5c1,1.1,2.8,1.1,4.4,0.9c1.8-0.3,3.6-0.8,5.4-1.5
			c1.6-0.6,3.4-1.4,4.6,0.3c5.3,7.5-15.1,8.9-18.3,8.3c-4.5-0.8-8.7-3.2-11.2-7c-2.2-3.4-2.7-7.7-3-11.8c-0.7-8.5-0.7-17.1,0-25.7
			c0.4-5.8,1.1-11.7,2.2-17.4c0.8-4.2,1.6-8.6,2.8-12.8C178.3,100,179.1,98.9,180.1,98.1z"/>
		<path class="st0" d="M209.1,150.2c-0.4-6.9-0.5-13.7-0.1-20.6c0.2-3.5,0.7-7,1.3-10.4c0.4-2.2,0.6-5.1,2.8-6.4
			c1.4-0.9,3.2-0.7,4.8-0.3c2,0.5,4.2,1.5,5,3.4c0.4,1.1,0.3,2.3,0.2,3.5c-0.7,10.9,1,22.1,2,33c0.3,3.3,0.6,6.6,0.9,9.9
			c0.3,3.4,1.7,9.9-0.9,12.6c-1.6,1.6-4.2,1.7-6.3,0.9c-2.8-1-5-3.4-6.4-6.1c-1.4-2.7-2-5.7-2.4-8.7c-0.5-3.3-0.7-6.7-0.9-10.1
			C209.1,150.8,209.1,150.5,209.1,150.2z"/>
		<path class="st0" d="M236.1,129.6c0.4-4.9,0.9-9.7,1.6-14.6c0.3-2.3,2.4-6.2,1-8.4c-1.9-2.9-9.3-2.3-9.5-6.6
			c-0.1-3.1,5.2-3.1,7.3-2.7c6.7,1.5,14.4,2.1,20.7,4.6c1.1,0.4,2.2,1.3,2.6,2.4c0.9,2.2-1,3.7-3,4.1c-1.8,0.3-4.1-0.6-5.5,0.8
			c-1.3,1.3-0.9,4.4-1,6.1c-0.2,2.8-0.2,5.6-0.3,8.3c-0.1,7,0.2,13.9,0.2,20.9c0,5.4,0,10.8,1,16c0.7,4,4.5,10.1,1.3,13.9
			c-0.9,1.1-2.2,1.8-3.6,2.3c-1.8,0.7-3.9,1.1-5.8,0.8s-3.8-1.4-4.8-3.1c-0.7-1.2-0.9-2.6-1-3.9
			C235.4,156.8,235.1,143.2,236.1,129.6z"/>
		<path class="st0" d="M267.2,129.6c0.5-6.6,0.8-13.8,2.6-20.1c0.3-1.2,0.7-2.8-0.6-3.6c-0.6-0.4-1.3-0.5-2-0.7
			c-1.8-0.4-3.4-1.3-4.8-2.5c-1.1-1-2.1-2.6-1.4-4c0.6-1.2,2.2-1.5,3.6-1.5c3.8,0,7.1,1.4,10.8,2.1c2.5,0.5,5,0.9,7.5,1.5
			c2.1,0.5,4.8,0.6,6.6,1.7c1.4,0.9,2.3,2.7,1.6,4.2c-0.7,1.5-2.5,2-4.1,2c-1.5,0.1-4.9-0.4-5.1,1.7c-1.1,13.9-0.6,27.9-0.2,41.8
			c0.1,3.8,0.2,7.6,1.3,11.2c0.8,2.6,2.1,5.2,1.7,7.9c-0.5,3.1-3.2,5.5-6.3,6.1c-2.5,0.5-6.6-0.2-8.5-2.2
			c-2.7-3.1-2.2-10.8-2.5-14.7c-0.5-5.9-0.8-11.8-0.7-17.7C266.7,138.5,266.9,134,267.2,129.6z"/>
		<path class="st0" d="M294.9,133.5c0.4-10.1,1.4-20.2,2.9-30.3c0.5-3.2,1.6-6.3,5.3-6.5c2.7-0.1,6.9,1.3,8.6,3.6
			c1.3,1.8,1.5,4.2,1.5,6.4c0.2,8.8-1,17.8-1.9,26.6c-0.9,9.2-0.6,18.3-0.3,27.6c0.1,1.5,0.1,3,0.6,4.3c0.3,0.8,0.9,1.7,1.8,1.8
			c0.5,0.1,1-0.2,1.5-0.4c2.1-1,4.3-1.8,6.6-2.3c1.1-0.3,2.2-0.4,3.2,0.1c4.6,2.7-7.7,8.8-9.4,9.5c-4,1.6-8.2,1.7-12.3,0.2
			c-2.2-0.8-4.3-2-5.7-3.9c-1.5-2.1-2-4.8-2.1-7.4c-0.3-7.8-0.7-15.6-0.5-23.4C294.8,137.5,294.8,135.5,294.9,133.5z"/>
		<path class="st0" d="M344.6,135.4c-0.1,1.9-1.5,10.5,1,11.2c0.4,0.1,0.9,0,1.3,0c1.8-0.4,3.7-0.7,5.5-1.1c1.5-0.3,3.3-0.5,4.5,0.5
			c1.3,1.2,1,3.5-0.2,4.7c-1.2,1.3-3.1,1.7-4.8,1.9c-1.8,0.2-3.6,0.1-5.2,0.6c-0.4,0.1-0.9,0.4-1.1,0.8c-0.1,0.3-0.1,0.7,0,1
			c0.8,3.3,1.5,6.6,2.3,10c0.1,0.3,0.2,0.7,0.5,0.9c0.2,0.2,0.5,0.2,0.8,0.2c1.7,0,3.4-0.7,5-1.2c1.6-0.6,3.4-1.1,5.1-0.7
			c2.8,0.6,3.7,3.4,2,5.6c-3.3,4.4-12.2,6.4-17.3,6.2c-5.5-0.3-9.8-3.2-11.6-8.4c-2-5.9-2.5-12.2-2.8-18.4c-0.5-9.2-0.8-18.4,0-27.6
			c0.4-4.6,1.1-9.3,2.1-13.8c0.8-3.6,1.3-8.5,5.4-9.8c2.2-0.7,4.6-0.4,6.9,0c4.4,0.8,8.7,1.7,12.8,3.5c2,0.9,4.6,2.5,4.4,5
			c-0.2,2-2.4,3.4-4.4,3.4s-4-0.8-5.9-1.3c-0.5-0.2-1.1-0.3-1.7-0.2c-2.5,0.5-2.8,10.1-3.1,12.2
			C345.3,125.5,344.8,130.5,344.6,135.4z"/>
		<path class="st0" d="M407.8,178.8c-4.8,0-13.3-0.9-13.2-5.6c0-0.9,0.6-1.9,1.5-2.1c0.7-0.2,1.5,0.1,2.2,0.1
			c0.7,0.1,1.7-0.2,1.9-0.9c0.1-0.3,0-0.6,0-0.9c-4.5-20.9-4.6-41.1-1-62.1c0.3-2.1,0.2-3.1-1.6-4.4c-0.9-0.6-1.8-1.2-2.4-2.1
			c-0.6-0.9-0.7-2.2,0.2-2.9c0.3-0.2,0.6-0.4,1-0.5c8-2.9,18.7-3.2,26.4,0.8c15,7.7,18.6,26.6,17.1,42c-0.9,8.5-2.4,17.2-6.6,24.7
			c-4.2,7.5-11.6,13.6-20.2,14.2C412.4,178.8,408.7,178.8,407.8,178.8z M427.4,119.8c-0.3-4.5-1.1-9.4-4.7-12.6
			c-1.1-1-3.7-3.2-5.2-2c-1.1,0.9-0.6,3.5-0.7,4.8c-0.3,2.9-0.6,5.9-0.8,8.8c-0.5,5.9-0.9,11.8-1.2,17.7c-0.5,10-0.7,20.3,2.5,29.7
			c7.4-6.7,9.6-17.3,10.3-27.2c0.4-5.2,0.5-10.4,0.1-15.6C427.5,122.4,427.5,121.1,427.4,119.8z"/>
		<path class="st0" d="M485.7,120c0,0,0,0.1,0,0.1c0.3,5.6,0.5,11.1,0.8,16.7c0.1,2.2,1.1,3.6,3.4,3.9c1,0.1,2,0,3.1,0.1
			c1,0.1,2.1,0.5,2.7,1.3c3.3,4.1-7.1,5.5-8.6,7.1c-2,2.3-0.8,6.3-0.5,9c0.4,3.4,0.6,7.1-1,10.2c-1.3,2.7-6.5,8.4-10,7.6
			c-4.4-1-5.5-10.2-6-13.7c-0.3-1.8-0.2-11.2-1.9-11.8c-0.3-0.1-0.7,0-1,0c-2.3,0.4-8.4,0.2-8.4,3.7c-0.6,2.8-1.1,5.6-1.3,8.4
			c-0.4,3.9-0.5,8.3-3.2,11.1c-1.2,1.2-3,2-4.5,1.3c-1-0.5-1.7-1.6-1.9-2.7s-0.1-2.3,0.1-3.4c0.5-4,1-8.1,1.5-12.1
			c0.1-0.9,0.2-1.9-0.2-2.7c-1.1-2.4-6.9-2.7-6.9-2.7l6.5-4.5c0,0,2.1-2,2.6-3.3c2.1-6.1,2.3-13.2,3.8-19.5
			c1.7-6.7,3.8-13.3,6.3-19.7c2.5-6.5,8.1-11.1,15.3-7.4c3.9,2,6.4,6,7.8,10.1C485.3,111.3,485.5,115.6,485.7,120z M467.4,126.1
			c0.2-3.1,0.3-6.9-0.4-7.3c-2.1,3.1-2.7,8.4-3.6,12c-1.1,4.3-2,8.7-2.9,13.1c-0.1,0.3-0.1,0.7,0.2,0.9c0.1,0.1,0.3,0,0.4,0
			c1.7-0.3,3.4-0.6,5.1-0.8c0.2,0,0.5-0.1,0.7-0.3c0.2-0.2,0.2-0.5,0.2-0.7c0-4.3,0-8.5,0-12.8C467.2,129.5,467.3,127.9,467.4,126.1
			z"/>
		<path class="st0" d="M528.2,112.2c-0.6,3.8-2.6,7.2-6.4,7.3c-1.9,0.1-3.7-1.7-3.3-3.5c0.2-0.8,0.8-1.4,1.3-2.1
			c1.3-1.8,1.6-4.2,0.8-6.3c-0.3-0.9-0.9-1.7-1.7-2.2c-3.7-2-7.1,3.4-7.5,6.4c-1.8,11.8,5.5,24.1,10.2,34.4
			c2.1,4.6,4.2,9.3,4.4,14.3c0.5,13.1-15.4,19.7-24.4,10.2c-2-2.1-3.4-5-3.2-7.9c0.2-2.8,3.8-7.7,7.2-6l1,0.5c1,0.4,1.5,1.3,1.8,2.4
			c0.3,2.7-1.6,6.1,1.5,7.8c1.8,1,4.5,0.2,5.4-1.6c1.3-2.6-0.5-5.5-2.1-7.9c-4.9-7-9-14.6-12.3-22.5c-2-4.9-3.8-10-4.1-15.3
			c-0.5-8.9,3.5-16.5,11.3-20.6c2.7-1.4,5.7-2.5,8.8-2.3c4.3,0.2,8.5,2.9,10.4,6.7C528.3,105.8,528.7,109.2,528.2,112.2z"/>
		<path class="st0" d="M543.1,172.8c-0.8-0.2-1.7-0.4-2.4-0.9c-1.5-0.9-2.3-2.6-2.9-4.2c-1.4-3.4-2.1-7-2.8-10.7
			c-2.9-16.5-2.8-33.7,1.7-49.8c0.2-0.7,0.4-1.4,0.9-1.9c0.6-0.7,1.5-1,2.4-1.2c4-1.1,11.4-1.7,12.1,4.1c0.1,1,0,2-0.2,2.9
			c-1.5,11.3-2.3,22.8-2.3,34.2c0,0.9,0.1,1.9,0.9,2.3c0.4,0.2,0.8,0.2,1.2,0.2c4.7-0.1,9.3-0.3,14-0.4c0.3,0,0.7,0,0.9-0.2
			c0.3-0.3,0.4-0.8,0.4-1.2c0-16.4,1.9-32.9,5.7-48.9c0.2-0.6,0.3-1.3,0.8-1.8c0.5-0.5,1.2-0.8,2-1c1.6-0.4,3.3-0.6,4.9-0.2
			s3.1,1.6,3.5,3.1c0.2,0.7,0.2,1.4,0.1,2.2c-0.5,12.9-0.9,25.7-1.2,38.6c-0.2,9.3,2.2,19.2,0.1,28.4c-1.7,7.5-13.9,15.4-14.9,3.3
			c-0.4-4.8-0.8-9.6-1.1-14.3c0-0.3-0.1-0.7-0.3-0.9c-0.2-0.2-0.5-0.2-0.8-0.2c-4.6,0.1-9.1,0.3-13.7,0.4c-0.4,0-0.8,0-1.1,0.3
			c-0.4,0.3-0.5,1-0.4,1.6c0.3,2.7,1.3,5.2,1.7,7.8c0.4,2.6,0,5.7-2.1,7.3c-1.7,1.4-4.1,1.5-6.3,1.2
			C543.6,172.9,543.4,172.9,543.1,172.8z"/>
	</g>
	<g>
		<path class="st0" d="M114.2,88.5c-11.3-7.6-24.1-10.8-36.3-15.3c-5.1-1.9-11.3-4.4-10.1-11.7c0.8-4.9,7.4-5.9,15.9-2.5
			C97.6,64.6,107.7,74.6,114.2,88.5z"/>
		<path class="st0" d="M105.6,91.6c-3.1,3.3-5.7,2.3-7.9,1.9c-9.5-2-19-1.9-28.6-0.8c-2.9,0.4-5.7,0.2-8.4-0.8
			c-1.7-0.6-3.4-1.4-3.7-3.4c-0.4-2.6,1.6-3.7,3.5-4.6c0.9-0.5,2-0.9,3-1C78.5,80.8,91.8,85.4,105.6,91.6z"/>
		<path class="st0" d="M99.3,100.5c-5.1,5.1-11.5,6.4-16.9,9.5c-2.3,1.3-5,0.7-6.4-1.8c-1.8-3.2,0.1-5.6,2.6-7
			C85,97.7,91.7,97.1,99.3,100.5z"/>
		<path class="st0" d="M102.7,107.1c-2,5.5-3.4,9.8-5.1,13.9c-1.1,2.6-3.1,5.4-6.4,4.1c-3.9-1.6-3-5.2-1.9-8.2
			C91.3,111.6,95.1,108.3,102.7,107.1z"/>
	</g>
	<g>
		<path class="st0" d="M559,172.5c5.8,11.7,7.2,24.3,9.9,36.5c1.1,5.1,2.7,11.3,9.8,11.1c4.8-0.1,6.6-6.3,4.4-14.8
			C579.6,191.4,571.4,180.5,559,172.5z"/>
		<path class="st0" d="M555,180.3c-3.6,2.5-2.9,5.1-2.8,7.3c0.7,9.3-0.6,18.3-3,27.3c-0.7,2.7-0.9,5.4-0.3,8.1
			c0.3,1.7,0.8,3.5,2.7,4c2.4,0.7,3.7-1.1,4.9-2.8c0.6-0.8,1.1-1.8,1.4-2.7C561.7,207.5,559.1,194.2,555,180.3z"/>
		<path class="st0" d="M545.7,185.1c-5.6,4.2-7.6,10.1-11.2,14.8c-1.6,2-1.3,4.6,0.9,6.3c2.8,2.1,5.3,0.7,7-1.5
			C546.6,199.1,548,192.8,545.7,185.1z"/>
		<path class="st0" d="M539.8,181.1c-5.5,1.2-9.7,1.9-13.9,3.1c-2.6,0.7-5.5,2.3-4.7,5.5c1,3.9,4.5,3.5,7.5,2.8
			C534.1,191.3,537.7,188.1,539.8,181.1z"/>
	</g>
</g>
</svg>
